<?xml version="1.0" encoding="UTF-8" ?>
<!DOCTYPE svg PUBLIC "-//W3C//DTD SVG 1.1//EN" "http://www.w3.org/Graphics/SVG/1.1/DTD/svg11.dtd">
<svg width="110pt" height="64pt" viewBox="0 0 110 64" version="1.1" xmlns="http://www.w3.org/2000/svg">
<path fill="#ffffff" d=" M 0.00 0.00 L 110.00 0.00 L 110.00 64.00 L 0.00 64.00 L 0.00 0.00 Z" />
<path fill="#4bcaff" d=" M 10.80 11.81 C 15.01 5.98 22.40 3.23 29.45 3.60 C 30.14 8.66 28.19 13.48 27.32 18.39 C 25.92 25.73 23.79 32.94 23.04 40.39 C 29.27 43.37 35.64 48.31 42.96 46.12 C 42.62 48.96 43.44 53.25 40.14 54.51 C 33.28 56.04 28.62 49.80 23.46 46.50 C 20.51 44.28 16.81 43.60 13.32 42.67 C 15.54 31.78 18.45 21.01 20.03 10.00 C 19.52 10.21 18.49 10.62 17.97 10.83 C 15.21 14.21 15.09 18.56 15.44 22.70 C 14.16 22.61 12.88 22.51 11.60 22.43 C 8.50 19.78 8.48 14.97 10.80 11.81 Z" />
<path fill="#4bcaff" d=" M 31.97 19.95 C 34.90 16.10 40.44 14.25 44.99 16.07 C 47.84 17.43 48.74 20.62 48.91 23.53 C 49.87 23.30 51.78 22.84 52.73 22.61 C 51.72 24.62 50.60 26.62 48.84 28.08 C 48.22 33.22 46.08 38.53 41.46 41.32 C 36.87 44.12 29.40 42.50 27.75 36.94 C 26.62 31.06 28.33 24.68 31.97 19.95 Z" />
<path fill="#4bcaff" d=" M 70.34 39.72 C 71.72 31.73 73.37 23.77 75.45 15.93 C 75.87 20.36 74.23 24.56 73.43 28.84 C 72.58 32.51 72.44 36.47 70.34 39.72 Z" />
<path fill="#4bcaff" d=" M 96.26 26.25 C 98.14 23.88 100.19 21.63 101.78 19.03 C 101.56 22.48 99.12 24.98 96.79 27.24 C 96.47 33.05 93.90 39.32 88.37 41.94 C 84.38 43.28 79.53 42.80 76.56 39.52 C 74.71 40.84 72.75 41.99 70.68 42.90 C 69.55 47.18 68.72 52.67 64.00 54.46 C 60.83 56.01 57.43 54.91 54.56 53.30 C 57.70 54.27 61.28 55.07 64.26 53.17 C 68.24 50.93 68.83 46.02 69.71 41.99 C 72.13 41.29 74.23 39.92 76.02 38.16 C 79.25 43.08 86.92 42.85 90.84 38.92 C 94.38 35.62 95.25 30.74 96.26 26.25 Z" />
<path fill="#ffffff" d=" M 40.71 20.37 C 41.69 20.33 42.67 20.30 43.66 20.25 C 41.96 22.63 42.04 25.33 42.99 28.00 C 42.50 31.63 40.91 36.91 36.37 36.79 C 35.75 30.94 37.40 25.18 40.71 20.37 Z" />
<path fill="#4bcaff" d=" M 57.46 46.75 C 58.69 45.67 60.19 44.98 61.63 44.23 C 60.73 45.27 59.77 46.27 58.77 47.22 C 58.54 47.99 58.07 49.53 57.83 50.29 C 57.68 49.12 57.04 47.91 57.46 46.75 Z" />
</svg>
