<?xml version="1.0" encoding="UTF-8"?>
<!DOCTYPE svg PUBLIC "-//W3C//DTD SVG 1.1//EN" "http://www.w3.org/Graphics/SVG/1.1/DTD/svg11.dtd">
<!-- Creator: CorelDRAW X7 -->
<svg xmlns="http://www.w3.org/2000/svg" xml:space="preserve" width="93px" height="52px" version="1.1" style="shape-rendering:geometricPrecision; text-rendering:geometricPrecision; image-rendering:optimizeQuality; fill-rule:evenodd; clip-rule:evenodd"
viewBox="0 0 34 19"
 xmlns:xlink="http://www.w3.org/1999/xlink">
 <defs>
  <style type="text/css">
   <![CDATA[
    .fil2 {fill:#070808}
    .fil1 {fill:#4BC8FE}
    .fil0 {fill:#FDFDFD}
   ]]>
  </style>
 </defs>
 <g id="Layer_x0020_1">
  <metadata id="CorelCorpID_0Corel-Layer"/>
  <g id="_673538640">
   <path class="fil0" d="M18 17l0 -1 1 -1 0 1c0,1 0,1 -1,1zm0 -5c-1,-2 1,-7 3,-6 0,1 -1,4 -1,6l-2 0zm10 0c-2,-1 0,-5 1,-6l1 0c0,2 1,5 -2,6zm-12 -5l-1 1 0 1 0 1 0 1c0,2 1,3 3,4 -2,1 -3,3 0,4 3,0 3,-1 4,-5l2 -1 1 0c1,1 0,1 1,1 3,0 4,0 5,-3 1,-1 1,-2 1,-3 0,0 1,0 2,-2l0 -1 -2 1c-1,-2 -3,-3 -6,0 -2,2 -1,6 -3,6l0 1 1 -8c0,-1 0,-1 -3,0 -1,0 0,-1 -2,0 -2,0 -2,1 -3,2z"/>
   <path class="fil1" d="M1 7l1 0c0,-3 0,-4 2,-5l0 1 -2 12c1,0 2,0 4,1 1,1 2,2 4,3 2,0 2,-1 2,-3 -1,-1 -1,0 -3,-1 -2,0 -3,-1 -4,-1 0,-1 0,-1 0,-2 1,-3 2,-10 3,-11 -3,-3 -11,3 -7,6z"/>
   <path class="fil1" d="M10 12c-1,-1 1,-5 2,-6l0 0c0,2 1,6 -2,6zm-1 2c4,0 5,-2 6,-5l0 -1 1 -1 -1 0c-1,-4 -5,-3 -7,-1 -1,2 -3,8 1,8z"/>
   <path class="fil2" d="M5 14c1,-3 1,-5 2,-7 0,-2 1,-4 1,-6 -1,1 -2,8 -3,11 0,1 0,1 0,2z"/>
   <path class="fil2" d="M26 14c2,2 5,-1 6,-2 0,-1 0,-3 1,-3 0,-1 0,-1 1,-2 1,-1 0,-1 0,-1 -1,2 -2,2 -2,2 0,1 0,2 -1,3 -1,3 -2,3 -5,3z"/>
   <path class="fil2" d="M9 14c1,1 3,0 4,0 1,-2 1,-2 2,-3l0 -1c0,-1 0,-1 0,-1l0 -1 0 1c-1,3 -2,5 -6,5z"/>
   <path class="fil2" d="M18 19c0,0 1,0 2,0 1,0 2,-1 2,-3 1,-2 1,-1 3,-3l-1 0 -2 1c-1,4 -1,5 -4,5z"/>
   <path class="fil2" d="M23 12c0,-1 1,-2 1,-3 0,-1 1,-3 0,-4l-1 8 0 -1z"/>
   <path class="fil2" d="M10 12c0,-3 0,-4 2,-6l0 0c-1,1 -3,5 -2,6z"/>
   <path class="fil2" d="M28 12c0,-3 0,-4 2,-6l-1 0c-1,1 -3,5 -1,6z"/>
   <path class="fil2" d="M18 12c0,-3 1,-4 3,-6 -2,-1 -4,4 -3,6z"/>
   <path class="fil2" d="M1 7c1,0 0,0 2,0 0,-2 -1,-3 1,-4l0 -1c-2,1 -2,2 -2,5l-1 0z"/>
   <path class="fil2" d="M10 19c0,0 1,0 2,0l1 -2 -1 -1c0,2 0,3 -2,3z"/>
   <polygon class="fil2" points="18,17 19,16 19,15 18,16 "/>
  </g>
 </g>
</svg>
